# This file uses centimeters as units for non-parametric coordinates.

mtllib InsideBend_LP.mtl
g default
v 1.551012 -0.000000 -1.511336
v 1.234384 -0.000000 -1.901969
v 0.923511 -0.000000 -2.298381
v 1.551012 1.000000 -1.511336
v 1.234384 1.000000 -1.901969
v 0.927324 0.600000 -2.302209
v 3.000000 1.000000 -1.998668
v 3.000000 1.000000 -2.498668
v 3.000000 0.600000 -2.998668
v 3.000000 -0.000000 -1.998668
v 3.000000 -0.000000 -2.498668
v 3.000000 -0.000000 -2.998668
v 1.000000 -0.000000 -0.000000
v 0.500000 -0.000000 -0.000000
v 0.000000 -0.000000 -0.000000
v 1.000000 1.000000 -0.000000
v 0.500000 1.000000 -0.000000
v 0.000000 0.600000 -0.000000
v 2.172986 1.000000 -1.883046
v 2.172986 -0.000000 -1.883046
v 2.007728 -0.000000 -2.371179
v 1.845064 -0.000000 -2.861916
v 1.845223 0.600000 -2.862075
v 2.007728 1.000000 -2.371179
v 2.563573 -0.000000 -1.970289
v 2.563573 1.000000 -1.970289
v 2.473532 1.000000 -2.468219
v 2.384791 0.600000 -2.967452
v 2.384791 -0.000000 -2.967452
v 2.473532 -0.000000 -2.468219
v 1.834789 1.000000 -1.731795
v 1.834789 -0.000000 -1.731795
v 1.591720 -0.000000 -2.182391
v 1.357788 -0.000000 -2.642161
v 1.364329 0.600000 -2.648730
v 1.591720 1.000000 -2.182391
v 2.776722 -0.000000 -1.991608
v 2.776722 1.000000 -1.991608
v 2.729655 1.000000 -2.491151
v 2.682957 0.600000 -2.991063
v 2.682957 -0.000000 -2.991063
v 2.729655 -0.000000 -2.491151
v 2.361997 1.000000 -1.934304
v 2.361997 -0.000000 -1.934304
v 2.232791 -0.000000 -2.428777
v 2.105900 -0.000000 -2.925575
v 2.105900 0.600000 -2.925575
v 2.232791 1.000000 -2.428777
v 1.997144 -0.000000 -1.815788
v 1.997144 1.000000 -1.815788
v 1.793250 1.000000 -2.288685
v 1.600772 0.600000 -2.773047
v 1.593667 -0.000000 -2.765912
v 1.793250 -0.000000 -2.288685
v 1.686058 1.000000 -1.630445
v 1.686058 -0.000000 -1.630445
v 1.405427 -0.000000 -2.053669
v 1.136263 -0.000000 -2.488407
v 1.141309 0.600000 -2.493473
v 1.405427 1.000000 -2.053669
v 1.150981 1.000000 -0.862014
v 1.150981 -0.000000 -0.862014
v 0.708974 -0.000000 -1.073372
v 0.252698 -0.000000 -1.270401
v 0.252698 0.600000 -1.270401
v 0.708974 1.000000 -1.073372
v 1.322401 -0.000000 -1.219939
v 1.322401 1.000000 -1.219939
v 0.938810 1.000000 -1.530002
v 0.551211 0.600000 -1.836040
v 0.549714 -0.000000 -1.834537
v 0.938810 -0.000000 -1.530002
v 1.429734 -0.000000 -1.374393
v 1.429734 1.000000 -1.374393
v 1.078726 1.000000 -1.727235
v 0.730346 0.600000 -2.082715
v 0.727730 -0.000000 -2.080088
v 1.078726 -0.000000 -1.727235
v 1.229326 1.000000 -1.048738
v 1.229326 -0.000000 -1.048738
v 0.815261 -0.000000 -1.311445
v 0.390650 -0.000000 -1.563561
v 0.391137 0.600000 -1.564050
v 0.815261 1.000000 -1.311445
v 1.041081 1.000000 -0.449048
v 1.041081 -0.000000 -0.449048
v 0.554180 -0.000000 -0.550100
v 0.063787 -0.000000 -0.647645
v 0.063787 0.600000 -0.647645
v 0.554180 1.000000 -0.550100
v 1.087988 -0.000000 -0.661431
v 1.087988 1.000000 -0.661431
v 0.621075 1.000000 -0.818178
v 0.142946 0.600000 -0.963663
v 0.142946 -0.000000 -0.963663
v 0.621075 -0.000000 -0.818178
v 1.011170 1.000000 -0.227372
v 1.011170 -0.000000 -0.227372
v 0.513578 -0.000000 -0.276381
v 0.015985 -0.000000 -0.325389
v 0.015985 0.600000 -0.325389
v 0.513578 1.000000 -0.276381
vt 0.251738 0.426898
vt 0.251738 0.000000
vt 0.372833 0.000000
vt 0.372833 0.426898
vt 0.503228 0.426898
vt 0.503228 0.000000
vt 0.000000 0.790064
vt 0.000000 0.477334
vt 0.199279 0.477334
vt 0.199279 0.790064
vt 0.857638 0.531825
vt 0.955455 0.531825
vt 0.955455 0.868836
vt 0.857638 0.868836
vt 0.251738 0.426898
vt 0.352565 0.426898
vt 0.352565 0.809748
vt 0.251738 0.809748
vt 0.453637 0.426898
vt 0.453637 0.809748
vt 0.701271 0.000000
vt 0.800910 0.000000
vt 0.800910 0.199279
vt 0.701271 0.199279
vt 0.900549 0.079711
vt 0.900549 0.199279
vt 0.701271 0.199279
vt 0.800910 0.199279
vt 0.800910 0.398557
vt 0.701271 0.398557
vt 0.900549 0.199279
vt 0.900549 0.318846
vt 0.732726 0.533961
vt 0.825346 0.533961
vt 0.825346 0.888724
vt 0.732726 0.888724
vt 0.249574 0.477334
vt 0.121935 0.477334
vt 0.121935 -0.000000
vt 0.249574 -0.000000
vt 0.503476 -0.000000
vt 0.600615 -0.000000
vt 0.600615 0.421542
vt 0.503476 0.421542
vt 0.698315 -0.000000
vt 0.698315 0.421542
vt 0.000000 0.477334
vt 0.000000 -0.000000
vt 0.503476 0.749842
vt 0.503476 0.421542
vt 0.702755 0.421542
vt 0.702755 0.749842
vt 0.199279 0.623028
vt 0.857638 0.689466
vt 0.000000 0.623028
vt 0.251738 0.625948
vt 0.352565 0.625948
vt 0.453637 0.625948
vt 0.251738 0.221702
vt 0.372833 0.221702
vt 0.955455 0.689466
vt 0.503228 0.221702
vt 0.000000 0.702859
vt 0.251738 0.529620
vt 0.199279 0.702859
vt 0.857638 0.776042
vt 0.955455 0.776042
vt 0.503228 0.115356
vt 0.372833 0.115356
vt 0.453637 0.529620
vt 0.251738 0.115356
vt 0.352565 0.529620
vt 0.199279 0.549084
vt 0.857638 0.607768
vt 0.000000 0.549084
vt 0.251738 0.719211
vt 0.352565 0.719211
vt 0.453637 0.719211
vt 0.251738 0.325208
vt 0.372833 0.325208
vt 0.955455 0.607768
vt 0.503228 0.325208
vt 0.000000 0.745548
vt 0.251738 0.479054
vt 0.199279 0.745548
vt 0.857638 0.821744
vt 0.955455 0.821744
vt 0.503228 0.058761
vt 0.372833 0.058761
vt 0.453637 0.479054
vt 0.251738 0.058761
vt 0.352565 0.479054
vt 0.199279 0.662055
vt 0.857638 0.731932
vt 0.000000 0.662055
vt 0.251738 0.578524
vt 0.352565 0.578524
vt 0.453637 0.578524
vt 0.251738 0.169577
vt 0.372833 0.169577
vt 0.955455 0.731932
vt 0.503228 0.169577
vt 0.000000 0.585511
vt 0.251738 0.673098
vt 0.199279 0.585511
vt 0.857638 0.647990
vt 0.955455 0.647990
vt 0.503228 0.273879
vt 0.372833 0.273879
vt 0.453637 0.673098
vt 0.251738 0.273879
vt 0.352565 0.673098
vt 0.199279 0.513218
vt 0.857638 0.569054
vt 0.000000 0.513218
vt 0.251738 0.764499
vt 0.352565 0.764499
vt 0.453637 0.764499
vt 0.251738 0.375901
vt 0.372833 0.375901
vt 0.955455 0.569054
vt 0.503228 0.375901
vt 0.702755 0.596722
vt 0.732726 0.721513
vt 0.503476 0.596722
vt 0.503476 0.203745
vt 0.600615 0.203745
vt 0.698315 0.203745
vt 0.000000 0.230917
vt 0.121935 0.230917
vt 0.825346 0.721513
vt 0.249574 0.230917
vt 0.503476 0.675908
vt 0.503476 0.097191
vt 0.702755 0.675908
vt 0.732726 0.809659
vt 0.825346 0.809659
vt 0.249574 0.110151
vt 0.121935 0.110151
vt 0.698315 0.097191
vt 0.000000 0.110151
vt 0.600615 0.097191
vt 0.503476 0.713389
vt 0.503476 0.047196
vt 0.702755 0.713389
vt 0.732726 0.850446
vt 0.825346 0.850446
vt 0.249574 0.054120
vt 0.121935 0.054120
vt 0.698315 0.047196
vt 0.000000 0.054120
vt 0.600615 0.047196
vt 0.702755 0.637075
vt 0.732726 0.766574
vt 0.503476 0.637075
vt 0.503476 0.149676
vt 0.600615 0.149676
vt 0.698315 0.149676
vt 0.000000 0.168415
vt 0.121935 0.168415
vt 0.825346 0.766574
vt 0.249574 0.168415
vt 0.702755 0.511482
vt 0.732726 0.627445
vt 0.503476 0.511482
vt 0.503476 0.314235
vt 0.600615 0.314235
vt 0.698315 0.314235
vt 0.000000 0.355505
vt 0.121935 0.355505
vt 0.825346 0.627445
vt 0.249574 0.355505
vt 0.503476 0.554826
vt 0.503476 0.259215
vt 0.702755 0.554826
vt 0.732726 0.674906
vt 0.825346 0.674906
vt 0.249574 0.293068
vt 0.121935 0.293068
vt 0.698315 0.259215
vt 0.000000 0.293068
vt 0.600615 0.259215
vt 0.702755 0.466907
vt 0.732726 0.580236
vt 0.503476 0.466907
vt 0.503476 0.368586
vt 0.600615 0.368586
vt 0.698315 0.368586
vt 0.000000 0.417229
vt 0.121935 0.417229
vt 0.825346 0.580236
vt 0.249574 0.417229
vn 0.000000 1.000000 0.000000
vn 0.000000 1.000000 0.000000
vn -0.255573 0.911808 -0.321386
vn -0.263205 0.918374 -0.295487
vn -0.380806 0.786332 -0.486486
vn -0.413693 0.783046 -0.464432
vn 1.000000 0.000000 0.000000
vn 1.000000 0.000000 0.000000
vn 1.000000 0.000000 0.000000
vn 1.000000 0.000000 0.000000
vn 1.000000 0.000000 0.000000
vn 1.000000 0.000000 0.000000
vn 0.000000 -1.000000 0.000000
vn 0.000000 -1.000000 0.000000
vn 0.000000 -1.000000 0.000000
vn 0.000000 -1.000000 0.000000
vn 0.000000 -1.000000 0.000000
vn 0.000000 -1.000000 0.000000
vn -0.666282 -0.000609 -0.745699
vn -0.666282 -0.000609 -0.745699
vn -0.620639 -0.001514 -0.784095
vn -0.621357 -0.001500 -0.783526
vn 0.613497 0.000000 0.789698
vn 0.661468 0.000000 0.749974
vn 0.661468 0.000000 0.749974
vn 0.613497 0.000000 0.789698
vn -0.000000 0.000000 1.000000
vn -0.000000 0.000000 1.000000
vn -0.000000 0.000000 1.000000
vn -0.000000 0.000000 1.000000
vn -0.000000 0.000000 1.000000
vn -0.000000 0.000000 1.000000
vn 0.000000 1.000000 0.000000
vn 0.000000 1.000000 0.000000
vn -0.406567 0.912743 -0.040043
vn -0.407637 0.912925 -0.020026
vn -0.621687 0.780869 -0.061231
vn -0.624401 0.780501 -0.030675
vn 0.000000 -1.000000 0.000000
vn 0.000000 -1.000000 0.000000
vn 0.000000 -1.000000 0.000000
vn 0.000000 -1.000000 0.000000
vn 0.000000 -1.000000 0.000000
vn 0.000000 -1.000000 0.000000
vn -0.998796 0.000000 -0.049067
vn -0.998796 0.000000 -0.049067
vn -0.995185 0.000000 -0.098017
vn -0.995185 0.000000 -0.098017
vn 0.995842 0.000000 0.091103
vn 0.998796 0.000000 0.049066
vn 0.998796 0.000000 0.049066
vn 0.995842 0.000000 0.091103
vn 0.031602 0.000000 0.999501
vn 0.031602 0.000000 0.999501
vn 0.064889 0.000000 0.997892
vn 0.064889 0.000000 0.997892
vn 0.000000 -1.000000 0.000000
vn 0.000000 -1.000000 0.000000
vn 0.000000 -1.000000 0.000000
vn 0.000000 -1.000000 0.000000
vn 0.000000 -1.000000 0.000000
vn 0.000000 -1.000000 0.000000
vn -0.050674 -0.000000 -0.998715
vn -0.023979 -0.000000 -0.999713
vn -0.023979 -0.000000 -0.999713
vn -0.050674 -0.000000 -0.998715
vn -0.021494 0.915557 -0.401614
vn -0.010377 0.915097 -0.403100
vn -0.016069 0.781107 -0.624190
vn -0.033984 0.782169 -0.622139
vn 0.000000 1.000000 0.000000
vn 0.000000 1.000000 0.000000
vn 0.217991 0.000000 0.975951
vn 0.308943 0.000000 0.951081
vn 0.308943 0.000000 0.951081
vn 0.217991 0.000000 0.975951
vn 0.000000 1.000000 0.000000
vn 0.000000 1.000000 0.000000
vn -0.077897 0.918016 -0.388817
vn -0.116966 0.918385 -0.378005
vn -0.122293 0.788000 -0.603407
vn -0.181417 0.791133 -0.584120
vn -0.293350 -0.001829 -0.956003
vn -0.191790 -0.000048 -0.981436
vn -0.191790 -0.000048 -0.981436
vn -0.293374 -0.001830 -0.955996
vn 0.000000 -1.000000 0.000000
vn 0.000000 -1.000000 0.000000
vn 0.000000 -1.000000 0.000000
vn 0.000000 -1.000000 0.000000
vn 0.000000 -1.000000 0.000000
vn 0.000000 -1.000000 0.000000
vn 0.408259 0.000000 0.912866
vn 0.408259 0.000000 0.912866
vn 0.000000 -1.000000 0.000000
vn 0.000000 -1.000000 0.000000
vn 0.000000 -1.000000 0.000000
vn -0.407765 -0.004205 -0.913077
vn -0.408916 -0.004218 -0.912562
vn -0.163002 0.917776 -0.362101
vn -0.248821 0.792461 -0.556861
vn 0.000000 1.000000 0.000000
vn 0.136872 0.000000 0.990589
vn 0.136872 0.000000 0.990589
vn 0.000000 1.000000 0.000000
vn -0.046879 0.916748 -0.396705
vn -0.073972 0.784739 -0.615397
vn -0.112762 -0.000000 -0.993622
vn -0.112762 -0.000000 -0.993622
vn 0.000000 -1.000000 0.000000
vn 0.000000 -1.000000 0.000000
vn 0.000000 -1.000000 0.000000
vn 0.511837 0.000000 0.859083
vn 0.511837 0.000000 0.859083
vn 0.000000 1.000000 0.000000
vn -0.209958 0.915350 -0.343588
vn -0.316319 0.790612 -0.524285
vn -0.518749 -0.003646 -0.854919
vn -0.519759 -0.003623 -0.854306
vn 0.000000 -1.000000 0.000000
vn 0.000000 -1.000000 0.000000
vn 0.000000 -1.000000 0.000000
vn 0.748626 0.000000 0.662992
vn 0.748626 0.000000 0.662992
vn 0.786769 0.000000 0.617248
vn 0.786769 0.000000 0.617248
vn 0.000000 -1.000000 0.000000
vn 0.000000 -1.000000 0.000000
vn 0.000000 -1.000000 0.000000
vn 0.000000 -1.000000 0.000000
vn 0.000000 -1.000000 0.000000
vn 0.000000 -1.000000 0.000000
vn -0.778327 0.000577 -0.627859
vn -0.744349 0.000395 -0.667791
vn -0.744349 0.000395 -0.667791
vn -0.778581 0.000578 -0.627544
vn -0.330092 0.906621 -0.262827
vn -0.327724 0.898144 -0.293148
vn -0.467781 0.778523 -0.418429
vn -0.489332 0.777675 -0.394685
vn 0.000000 1.000000 0.000000
vn 0.000000 1.000000 0.000000
vn 0.901900 0.000000 0.431945
vn 0.939404 0.000000 0.342812
vn 0.939404 0.000000 0.342812
vn 0.901900 0.000000 0.431945
vn 0.000000 1.000000 0.000000
vn 0.000000 1.000000 0.000000
vn -0.375887 0.906232 -0.193526
vn -0.388408 0.908052 -0.156784
vn -0.559346 0.776573 -0.289941
vn -0.581679 0.778571 -0.235535
vn -0.924227 0.000097 -0.381843
vn -0.884609 0.000387 -0.466333
vn -0.884639 0.000386 -0.466276
vn -0.924227 0.000097 -0.381843
vn 0.000000 -1.000000 0.000000
vn 0.000000 -1.000000 0.000000
vn 0.000000 -1.000000 0.000000
vn 0.000000 -1.000000 0.000000
vn 0.000000 -1.000000 0.000000
vn 0.000000 -1.000000 0.000000
vn 0.851653 0.000000 0.524107
vn 0.851653 0.000000 0.524107
vn 0.000000 1.000000 0.000000
vn -0.356660 0.905786 -0.228793
vn -0.529297 0.775999 -0.343031
vn -0.837122 0.000668 -0.547016
vn -0.837238 0.000668 -0.546839
vn 0.000000 -1.000000 0.000000
vn 0.000000 -1.000000 0.000000
vn 0.000000 -1.000000 0.000000
vn 0.966365 0.000000 0.257173
vn 0.966365 0.000000 0.257173
vn 0.000000 -1.000000 0.000000
vn 0.000000 -1.000000 0.000000
vn 0.000000 -1.000000 0.000000
vn -0.956940 0.000000 -0.290284
vn -0.956940 0.000000 -0.290284
vn -0.396550 0.910286 -0.118858
vn -0.599119 0.780235 -0.179695
vn 0.000000 1.000000 0.000000
vn 0.984698 0.000000 0.174269
vn 0.984698 0.000000 0.174269
vn 0.000000 1.000000 0.000000
vn -0.402995 0.911694 -0.080063
vn -0.612769 0.780828 -0.121745
vn -0.980785 0.000000 -0.195091
vn -0.980785 0.000000 -0.195091
vn 0.000000 -1.000000 0.000000
vn 0.000000 -1.000000 0.000000
vn 0.000000 -1.000000 0.000000
s 1
g Inside_Bend
usemtl initialShadingGroup
f 4/11/1 55/114/2 60/121/3 5/12/4
f 5/5/4 60/122/3 59/120/5 6/4/6
s 2
f 7/21/7 10/24/8 11/23/9 8/22/10
f 8/22/10 11/23/9 12/26/11 9/25/12
s 3
f 56/116/13 1/18/14 2/17/15 57/117/16
f 57/117/16 2/17/15 3/20/17 58/118/18
s 4
f 3/1/19 6/4/20 59/120/21 58/119/22
s 5
f 55/113/23 4/9/24 1/8/25 56/115/26
s 6
f 13/27/27 16/30/28 17/29/29 14/28/30
f 14/28/30 17/29/29 18/32/31 15/31/32
s 7
f 16/33/33 97/184/34 102/191/35 17/34/36
f 17/37/36 102/192/35 101/190/37 18/38/38
s 8
f 98/186/39 13/44/40 14/43/41 99/187/42
f 99/187/42 14/43/41 15/46/43 100/188/44
s 9
f 15/47/45 18/38/46 101/190/47 100/189/48
s 10
f 97/183/49 16/51/50 13/50/51 98/185/52
s 5
f 10/7/53 7/10/54 38/85/55 37/83/56
s 3
f 10/15/57 37/84/58 42/92/59 11/16/60
f 11/16/60 42/92/59 41/90/61 12/19/62
s 4
f 40/89/63 9/3/64 12/2/65 41/91/66
s 1
f 39/88/67 8/6/68 9/3/69 40/89/70
f 38/86/71 7/14/72 8/13/68 39/87/67
s 5
f 43/93/73 19/53/74 20/55/75 44/95/76
s 1
f 19/54/77 43/94/78 48/101/79 24/61/80
f 24/62/80 48/102/79 47/100/81 23/60/82
s 4
f 23/60/83 47/100/84 46/99/85 22/59/86
s 3
f 45/97/87 21/57/88 22/58/89 46/98/90
f 44/96/91 20/56/92 21/57/88 45/97/87
s 5
f 19/53/74 50/105/93 49/103/94 20/55/75
s 3
f 20/56/92 49/104/95 54/112/96 21/57/88
f 21/57/88 54/112/96 53/110/97 22/58/89
s 4
f 52/109/98 23/60/83 22/59/86 53/111/99
s 1
f 51/108/100 24/62/80 23/60/82 52/109/101
f 50/106/102 19/54/77 24/61/80 51/107/100
s 5
f 38/85/55 26/65/103 25/63/104 37/83/56
s 1
f 26/66/105 38/86/71 39/87/67 27/67/106
f 27/68/106 39/88/67 40/89/70 28/69/107
s 4
f 28/69/108 40/89/63 41/91/66 29/71/109
s 3
f 42/92/59 30/72/110 29/70/111 41/90/61
f 37/84/58 25/64/112 30/72/110 42/92/59
s 5
f 26/65/103 43/93/73 44/95/76 25/63/104
s 3
f 25/64/112 44/96/91 45/97/87 30/72/110
f 30/72/110 45/97/87 46/98/90 29/70/111
s 4
f 47/100/84 28/69/108 29/71/109 46/99/85
s 1
f 48/102/79 27/68/106 28/69/107 47/100/81
f 43/94/78 26/66/105 27/67/106 48/101/79
s 5
f 50/105/93 31/73/113 32/75/114 49/103/94
s 1
f 31/74/115 50/106/102 51/107/100 36/81/116
f 36/82/116 51/108/100 52/109/101 35/80/117
s 4
f 35/80/118 52/109/98 53/111/99 34/79/119
s 3
f 54/112/96 33/77/120 34/78/121 53/110/97
f 49/104/95 32/76/122 33/77/120 54/112/96
s 5
f 31/73/113 55/113/23 56/115/26 32/75/114
s 3
f 32/76/122 56/116/13 57/117/16 33/77/120
f 33/77/120 57/117/16 58/118/18 34/78/121
s 4
f 59/120/21 35/80/118 34/79/119 58/119/22
s 1
f 60/122/3 36/82/116 35/80/117 59/120/5
f 55/114/2 31/74/115 36/81/116 60/121/3
s 10
f 1/49/123 4/52/124 74/145/125 73/143/126
s 8
f 1/41/127 73/144/128 78/152/129 2/42/130
f 2/42/130 78/152/129 77/150/131 3/45/132
s 9
f 76/149/133 6/39/134 3/48/135 77/151/136
s 7
f 75/148/137 5/40/138 6/39/139 76/149/140
f 74/146/141 4/36/142 5/35/138 75/147/137
s 10
f 79/153/143 61/123/144 62/125/145 80/155/146
s 7
f 61/124/147 79/154/148 84/161/149 66/131/150
f 66/132/150 84/162/149 83/160/151 65/130/152
s 9
f 65/130/153 83/160/154 82/159/155 64/129/156
s 8
f 81/157/157 63/127/158 64/128/159 82/158/160
f 80/156/161 62/126/162 63/127/158 81/157/157
s 10
f 74/145/125 68/135/163 67/133/164 73/143/126
s 7
f 68/136/165 74/146/141 75/147/137 69/137/166
f 69/138/166 75/148/137 76/149/140 70/139/167
s 9
f 70/139/168 76/149/133 77/151/136 71/141/169
s 8
f 78/152/129 72/142/170 71/140/171 77/150/131
f 73/144/128 67/134/172 72/142/170 78/152/129
s 10
f 68/135/163 79/153/143 80/155/146 67/133/164
s 8
f 67/134/172 80/156/161 81/157/157 72/142/170
f 72/142/170 81/157/157 82/158/160 71/140/171
s 9
f 83/160/154 70/139/168 71/141/169 82/159/155
s 7
f 84/162/149 69/138/166 70/139/167 83/160/151
f 79/154/148 68/136/165 69/137/166 84/161/149
s 10
f 61/123/144 92/175/173 91/173/174 62/125/145
s 8
f 62/126/162 91/174/175 96/182/176 63/127/158
f 63/127/158 96/182/176 95/180/177 64/128/159
s 9
f 94/179/178 65/130/153 64/129/156 95/181/179
s 7
f 93/178/180 66/132/150 65/130/152 94/179/181
f 92/176/182 61/124/147 66/131/150 93/177/180
s 10
f 92/175/173 85/163/183 86/165/184 91/173/174
s 7
f 85/164/185 92/176/182 93/177/180 90/171/186
f 90/172/186 93/178/180 94/179/181 89/170/187
s 9
f 89/170/188 94/179/178 95/181/179 88/169/189
s 8
f 96/182/176 87/167/190 88/168/191 95/180/177
f 91/174/175 86/166/192 87/167/190 96/182/176
s 10
f 85/163/183 97/183/49 98/185/52 86/165/184
s 8
f 86/166/192 98/186/39 99/187/42 87/167/190
f 87/167/190 99/187/42 100/188/44 88/168/191
s 9
f 101/190/47 89/170/188 88/169/189 100/189/48
s 7
f 102/192/35 90/172/186 89/170/187 101/190/37
f 97/184/34 85/164/185 90/171/186 102/191/35
